<svg xmlns="http://www.w3.org/2000/svg" viewBox="0 0 64 64"><path fill="#93d5f6" d="M32,9a1,1,0,0,0-1,1v4a1,1,0,0,0,2,0V10A1,1,0,0,0,32,9Z"/><path fill="#c6c6c6" d="M15 25H49a1 1 0 0 0 1-1V18a4.84 4.84 0 0 0-.16-1.26 1 1 0 0 0-1-.75L15 17a1 1 0 0 0-1 1v6A1 1 0 0 0 15 25zM11 35H53a1 1 0 0 0 1-1V28a5.06 5.06 0 0 0-.17-1.28 1 1 0 0 0-1-.74L11 27a1 1 0 0 0-1 1v6A1 1 0 0 0 11 35zM57.83 36.72a1 1 0 0 0-1-.74L7 37a1 1 0 0 0-1 1v6a1 1 0 0 0 1 1H57a1 1 0 0 0 1-1V38A5 5 0 0 0 57.83 36.72z"/><path fill="#8a523f" d="M38,55H36V48a1,1,0,0,0-1-1H29a1,1,0,0,0-1,1v7H26a5,5,0,0,0-5,5,1,1,0,0,0,1,1H42a1,1,0,0,0,1-1A5,5,0,0,0,38,55Z"/><path fill="#41c0f0" d="M60,43H4a1,1,0,0,0-1,1,5,5,0,0,0,5,5H56a5,5,0,0,0,5-5A1,1,0,0,0,60,43Z"/><path fill="#eb5e57" d="M35.22,3.89A2.7,2.7,0,0,0,32,3.31a2.7,2.7,0,0,0-3.22.58,3,3,0,0,0,0,4.07l2.48,2.71a1,1,0,0,0,1.48,0L35.22,8A3,3,0,0,0,35.22,3.89Z"/><path fill="#682f1c" d="M57.83 36.72A5 5 0 0 0 53 33H11a5 5 0 0 0-5 5v2a1 1 0 0 0 1 1 1 1 0 0 0 .5-.15A1 1 0 0 0 8 41a1 1 0 0 0 .68-.27l1.61-1.5a1.34 1.34 0 0 1 1.85 0 3.4 3.4 0 0 0 4.56 0 1.37 1.37 0 0 1 1.85 0 3.39 3.39 0 0 0 4.55 0 1.37 1.37 0 0 1 1.86 0 3.41 3.41 0 0 0 4.57 0 1.36 1.36 0 0 1 1.85 0 3.4 3.4 0 0 0 4.56 0 1.37 1.37 0 0 1 1.85 0 3.4 3.4 0 0 0 4.56 0 1.36 1.36 0 0 1 1.85 0 3.41 3.41 0 0 0 4.57 0 1.36 1.36 0 0 1 1.85 0 3.4 3.4 0 0 0 4.56 0l1.41-1.31a1 1 0 0 0 .53 0A1 1 0 0 0 57.83 36.72zM14.05 20.27l.06.17a.83.83 0 0 0 .11.15 1 1 0 0 0 .13.16l.05.05.13.07.12.06A1 1 0 0 0 15 21h0a.92.92 0 0 0 .41-.1.33.33 0 0 0 .1-.06.91.91 0 0 0 .24-.2s0 0 .05 0l1.13-1.49a.51.51 0 0 1 .35-.25h0a.53.53 0 0 1 .34.25 2.36 2.36 0 0 0 3.86 0c.15-.2.28-.25.34-.25s.19.05.35.26a2.38 2.38 0 0 0 3.86 0c.23-.31.45-.29.68 0a2.32 2.32 0 0 0 3.85 0c.25-.32.46-.32.7 0a2.36 2.36 0 0 0 3.86 0c.15-.2.28-.25.34-.25s.19.05.35.26a2.37 2.37 0 0 0 3.85 0c.24-.31.46-.3.69 0a2.32 2.32 0 0 0 3.85 0c.25-.32.46-.32.7 0a2.37 2.37 0 0 0 3.87 0l1-1.37a1 1 0 0 0 0-1.22A5 5 0 0 0 45 13H19a5 5 0 0 0-5 5v2s0 0 0 .07S14 20.2 14.05 20.27zM10.05 30.26a.7.7 0 0 1 0 .14.94.94 0 0 0 .09.12.9.9 0 0 0 .14.2h0a.62.62 0 0 0 .16.1.75.75 0 0 0 .15.09A.91.91 0 0 0 11 31a1 1 0 0 0 .39-.08h0a1 1 0 0 0 .32-.22h0l1.4-1.49a.88.88 0 0 1 1.36 0 2.92 2.92 0 0 0 4.25 0 .88.88 0 0 1 1.36 0 2.92 2.92 0 0 0 4.25 0 .88.88 0 0 1 1.36 0 2.93 2.93 0 0 0 4.26 0 .88.88 0 0 1 1.36 0 2.92 2.92 0 0 0 4.25 0 .88.88 0 0 1 1.36 0 2.92 2.92 0 0 0 4.25 0 .88.88 0 0 1 1.36 0 2.93 2.93 0 0 0 4.26 0 .88.88 0 0 1 1.36 0 2.92 2.92 0 0 0 4.26 0l1.3-1.39a1 1 0 0 0 0-1.33A5 5 0 0 0 49 23H15a5 5 0 0 0-5 5v2A1 1 0 0 0 10.05 30.26z"/></svg>